<?xml version="1.0" encoding="utf-8"?>
<!-- Generator: Adobe Illustrator 16.0.4, SVG Export Plug-In . SVG Version: 6.00 Build 0)  -->
<!DOCTYPE svg PUBLIC "-//W3C//DTD SVG 1.1//EN" "http://www.w3.org/Graphics/SVG/1.1/DTD/svg11.dtd">
<svg version="1.1" id="Layer_1" xmlns="http://www.w3.org/2000/svg" xmlns:xlink="http://www.w3.org/1999/xlink" x="0px" y="0px"
	 width="24px" height="24px" viewBox="0 0 24 24" enable-background="new 0 0 24 24" xml:space="preserve">
<g>
	<defs>
		<rect id="SVGID_1_" width="24" height="24"/>
	</defs>
	<clipPath id="SVGID_2_">
		<use xlink:href="#SVGID_1_"  overflow="visible"/>
	</clipPath>
	<path clip-path="url(#SVGID_2_)" d="M18.231,12.973c-0.184,0-0.375-0.06-0.559-0.101c-0.369-0.082-0.733-0.19-1.088-0.324
		c-0.8-0.29-1.688,0.068-2.062,0.832l-0.184,0.373c-0.811-0.45-1.555-1.01-2.212-1.663c-0.654-0.658-1.212-1.401-1.664-2.211
		l0.35-0.232c0.765-0.375,1.123-1.264,0.831-2.062c-0.132-0.355-0.239-0.721-0.323-1.091c-0.041-0.181-0.075-0.372-0.1-0.564
		C11.014,4.72,9.954,3.842,8.727,3.859H6.232C4.854,3.846,3.728,4.951,3.715,6.33C3.713,6.452,3.722,6.573,3.738,6.694
		c0.911,7.167,6.566,12.801,13.737,13.687h0.314c0.614,0,1.206-0.224,1.663-0.632c0.533-0.476,0.835-1.157,0.832-1.871v-2.494
		C20.264,14.191,19.403,13.181,18.231,12.973z M18.646,17.96c0,0.24-0.104,0.467-0.283,0.625c-0.188,0.162-0.435,0.237-0.681,0.208
		C11.275,17.971,6.242,12.911,5.45,6.502C5.425,6.257,5.499,6.01,5.659,5.822c0.156-0.18,0.384-0.285,0.623-0.285h2.495
		c0.398-0.007,0.747,0.268,0.83,0.657c0.034,0.228,0.075,0.454,0.125,0.675c0.096,0.438,0.225,0.868,0.382,1.287L8.95,8.697
		C8.534,8.89,8.352,9.383,8.542,9.801c0,0.002,0.002,0.002,0.002,0.004c1.197,2.562,3.258,4.623,5.819,5.82
		c0.204,0.082,0.431,0.082,0.633,0c0.21-0.075,0.381-0.231,0.474-0.433l0.517-1.164c0.43,0.153,0.868,0.28,1.313,0.383
		c0.222,0.049,0.446,0.09,0.674,0.124c0.39,0.084,0.665,0.434,0.657,0.83L18.646,17.96z"/>
</g>
</svg>
