<?xml version="1.0" encoding="utf-8"?>
<!-- Generator: Adobe Illustrator 16.0.4, SVG Export Plug-In . SVG Version: 6.00 Build 0)  -->
<!DOCTYPE svg PUBLIC "-//W3C//DTD SVG 1.1//EN" "http://www.w3.org/Graphics/SVG/1.1/DTD/svg11.dtd">
<svg version="1.1" id="Layer_1" xmlns="http://www.w3.org/2000/svg" xmlns:xlink="http://www.w3.org/1999/xlink" x="0px" y="0px"
	 width="24px" height="24px" viewBox="0 0 24 24" enable-background="new 0 0 24 24" xml:space="preserve">
<g>
	<g>
		<defs>
			<rect id="SVGID_1_" width="24" height="24"/>
		</defs>
		<clipPath id="SVGID_2_">
			<use xlink:href="#SVGID_1_"  overflow="visible"/>
		</clipPath>
		<path clip-path="url(#SVGID_2_)" d="M18.107,5.02H5.893c-1.446,0-2.618,1.172-2.618,2.617v8.727c0,1.444,1.172,2.616,2.618,2.616
			h12.216c1.445,0,2.617-1.172,2.617-2.616V7.637C20.727,6.191,19.555,5.02,18.107,5.02z M17.75,6.765l-5.13,5.13
			c-0.34,0.343-0.893,0.345-1.235,0.006c-0.001-0.001-0.003-0.004-0.004-0.006L6.25,6.765H17.75z M18.98,16.363
			c0,0.48-0.392,0.871-0.873,0.871H5.893c-0.482,0-0.873-0.391-0.873-0.871V7.995l5.131,5.13c1.021,1.021,2.678,1.021,3.699,0
			l5.131-5.13V16.363L18.98,16.363z"/>
	</g>
</g>
</svg>
