<?xml version="1.0" encoding="utf-8"?>
<!-- Generator: Adobe Illustrator 16.0.4, SVG Export Plug-In . SVG Version: 6.00 Build 0)  -->
<!DOCTYPE svg PUBLIC "-//W3C//DTD SVG 1.1//EN" "http://www.w3.org/Graphics/SVG/1.1/DTD/svg11.dtd">
<svg version="1.1" id="Layer_1" xmlns="http://www.w3.org/2000/svg" xmlns:xlink="http://www.w3.org/1999/xlink" x="0px" y="0px"
	 width="24px" height="24px" viewBox="0 0 24 24" enable-background="new 0 0 24 24" xml:space="preserve">
<g>
	<g>
		<defs>
			<rect id="SVGID_1_" width="24" height="24"/>
		</defs>
		<clipPath id="SVGID_2_">
			<use xlink:href="#SVGID_1_"  overflow="visible"/>
		</clipPath>
		<path clip-path="url(#SVGID_2_)" d="M11.404,3.171c-4.457,0-8.07,3.613-8.07,8.07s3.613,8.069,8.07,8.069
			c4.458,0,8.071-3.612,8.071-8.069S15.861,3.171,11.404,3.171z M11.404,17.698c-3.565,0-6.456-2.892-6.456-6.457
			s2.891-6.457,6.456-6.457c3.567,0,6.458,2.892,6.458,6.457S14.971,17.698,11.404,17.698z M11.404,6.399
			c-0.445,0-0.807,0.36-0.807,0.807v3.566L8.903,11.75c-0.388,0.22-0.524,0.711-0.305,1.1c0.145,0.254,0.415,0.411,0.708,0.408
			c0.142,0.003,0.28-0.035,0.403-0.104l2.098-1.211l0.073-0.073l0.129-0.104c0.032-0.04,0.059-0.084,0.081-0.129
			c0.025-0.043,0.048-0.089,0.064-0.137c0.021-0.053,0.035-0.106,0.041-0.162l0.016-0.097V7.206
			C12.212,6.76,11.851,6.399,11.404,6.399z"/>
	</g>
</g>
</svg>
